<svg xmlns="http://www.w3.org/2000/svg" viewBox="0 0 64 64"><ellipse cx="32" cy="14" rx="4.6" ry="12" fill="#e5a93d" transform="rotate(0 32 32)"/><ellipse cx="32" cy="14" rx="4.6" ry="12" fill="#e5a93d" transform="rotate(30 32 32)"/><ellipse cx="32" cy="14" rx="4.6" ry="12" fill="#e5a93d" transform="rotate(60 32 32)"/><ellipse cx="32" cy="14" rx="4.6" ry="12" fill="#e5a93d" transform="rotate(90 32 32)"/><ellipse cx="32" cy="14" rx="4.6" ry="12" fill="#e5a93d" transform="rotate(120 32 32)"/><ellipse cx="32" cy="14" rx="4.6" ry="12" fill="#e5a93d" transform="rotate(150 32 32)"/><ellipse cx="32" cy="14" rx="4.6" ry="12" fill="#e5a93d" transform="rotate(180 32 32)"/><ellipse cx="32" cy="14" rx="4.6" ry="12" fill="#e5a93d" transform="rotate(210 32 32)"/><ellipse cx="32" cy="14" rx="4.6" ry="12" fill="#e5a93d" transform="rotate(240 32 32)"/><ellipse cx="32" cy="14" rx="4.6" ry="12" fill="#e5a93d" transform="rotate(270 32 32)"/><ellipse cx="32" cy="14" rx="4.6" ry="12" fill="#e5a93d" transform="rotate(300 32 32)"/><ellipse cx="32" cy="14" rx="4.6" ry="12" fill="#e5a93d" transform="rotate(330 32 32)"/><ellipse cx="32" cy="21" rx="4.2" ry="8.5" fill="#f3d38f" transform="rotate(22 32 32)"/><ellipse cx="32" cy="21" rx="4.2" ry="8.5" fill="#f3d38f" transform="rotate(67 32 32)"/><ellipse cx="32" cy="21" rx="4.2" ry="8.5" fill="#f3d38f" transform="rotate(112 32 32)"/><ellipse cx="32" cy="21" rx="4.2" ry="8.5" fill="#f3d38f" transform="rotate(157 32 32)"/><ellipse cx="32" cy="21" rx="4.2" ry="8.5" fill="#f3d38f" transform="rotate(202 32 32)"/><ellipse cx="32" cy="21" rx="4.2" ry="8.5" fill="#f3d38f" transform="rotate(247 32 32)"/><ellipse cx="32" cy="21" rx="4.2" ry="8.5" fill="#f3d38f" transform="rotate(292 32 32)"/><ellipse cx="32" cy="21" rx="4.2" ry="8.5" fill="#f3d38f" transform="rotate(337 32 32)"/><circle cx="32" cy="32" r="6.5" fill="#8b2f42"/></svg>